<?xml version="1.0" standalone="no"?>
<!DOCTYPE svg PUBLIC "-//W3C//DTD SVG 20010904//EN"
 "http://www.w3.org/TR/2001/REC-SVG-20010904/DTD/svg10.dtd">
<svg version="1.0" xmlns="http://www.w3.org/2000/svg"
 width="512.000000pt" height="512.000000pt" viewBox="0 0 512.000000 512.000000"
 preserveAspectRatio="xMidYMid meet">
<metadata>
Created by potrace 1.16, written by Peter Selinger 2001-2019
</metadata>
<g transform="translate(0.000000,512.000000) scale(0.100000,-0.100000)"
fill="#000000" stroke="none">
<path d="M1892 4608 c-7 -7 -11 -21 -11 -32 1 -21 1 -21 6 -1 3 11 10 26 15
33 13 15 6 16 -10 0z"/>
<path d="M2218 4580 l-3 -25 -165 -5 c-136 -4 -159 -7 -130 -15 21 -7 91 -9
180 -5 155 5 168 11 136 55 -14 19 -14 19 -18 -5z"/>
<path d="M2417 4460 c29 -34 43 -73 43 -125 0 -44 11 -56 48 -54 12 0 10 3 -5
9 -18 7 -23 17 -23 45 0 42 -28 102 -61 130 l-24 20 22 -25z"/>
<path d="M1810 4445 c-6 -8 -10 -22 -8 -32 4 -24 56 -31 64 -9 9 23 160 23
185 0 17 -15 20 -15 43 0 35 22 191 23 226 0 l25 -16 -24 21 c-20 18 -36 21
-116 21 -70 0 -96 4 -105 15 -7 8 -18 15 -25 15 -7 0 -18 -7 -25 -15 -9 -11
-34 -15 -95 -15 -64 0 -84 3 -89 15 -7 19 -40 19 -56 0z"/>
<path d="M3363 4449 c9 -6 14 -15 11 -21 -4 -7 -2 -8 5 -4 14 9 -3 36 -23 36
-6 0 -3 -5 7 -11z"/>
<path d="M2746 4436 c16 -12 17 -17 6 -28 -11 -11 -16 -10 -28 6 -8 11 -14 15
-14 9 0 -6 7 -16 16 -23 12 -11 18 -10 31 3 13 13 14 19 3 31 -7 9 -17 16 -23
16 -6 0 -2 -6 9 -14z"/>
<path d="M2817 4444 c-8 -8 1 -24 14 -24 5 0 9 7 9 15 0 15 -12 20 -23 9z"/>
<path d="M3077 4413 c18 -2 50 -2 70 0 21 2 7 4 -32 4 -38 0 -55 -2 -38 -4z"/>
<path d="M3008 4403 c7 -3 16 -2 19 1 4 3 -2 6 -13 5 -11 0 -14 -3 -6 -6z"/>
<path d="M2918 4374 c-39 -21 -35 -28 5 -8 37 19 44 24 31 24 -5 -1 -21 -8
-36 -16z"/>
<path d="M3261 4386 c2 -2 15 -9 29 -15 24 -11 24 -11 6 3 -16 13 -49 24 -35
12z"/>
<path d="M2347 4359 c4 -13 8 -18 11 -10 2 7 -1 18 -6 23 -8 8 -9 4 -5 -13z"/>
<path d="M1256 4362 c-2 -4 7 -8 22 -7 18 0 28 -6 30 -19 5 -22 -16 -38 -40
-30 -24 7 -23 -3 1 -16 11 -5 27 -7 35 -4 19 7 21 55 4 72 -14 14 -44 16 -52
4z"/>
<path d="M1753 4353 c9 -2 23 -2 30 0 6 3 -1 5 -18 5 -16 0 -22 -2 -12 -5z"/>
<path d="M1918 4353 c6 -2 18 -2 25 0 6 3 1 5 -13 5 -14 0 -19 -2 -12 -5z"/>
<path d="M3359 4317 c78 -88 143 -270 112 -319 -7 -11 -8 -17 -2 -13 8 4 11
-151 11 -531 0 -528 0 -538 -21 -582 -29 -58 -89 -102 -142 -102 -44 0 -102
36 -117 74 -7 15 -9 17 -9 4 -1 -9 19 -37 44 -61 25 -25 45 -50 45 -56 0 -17
87 -13 123 5 18 9 45 28 60 42 l28 26 -3 -606 -3 -607 -22 -28 c-13 -15 -32
-45 -43 -65 -35 -66 -75 -78 -250 -78 -98 0 -149 -4 -145 -10 4 -6 65 -10 149
-10 133 0 146 2 190 25 61 32 60 14 -1 -22 -47 -28 -50 -28 -214 -28 -150 0
-169 -2 -188 -19 -27 -24 -27 -61 0 -84 43 -35 50 -45 47 -66 -2 -12 -14 -25
-31 -30 -37 -13 -74 14 -106 78 -21 42 -22 52 -12 86 13 45 57 85 109 100 20
5 108 10 196 10 142 0 162 2 191 20 18 11 36 28 40 37 5 14 2 13 -17 -3 -42
-39 -64 -44 -190 -43 -122 0 -123 0 -73 14 28 8 84 19 125 25 41 7 90 21 109
32 41 26 71 88 70 148 l-1 45 -8 -38 c-9 -47 -62 -104 -110 -117 -19 -5 -71
-10 -115 -10 -146 0 -269 -49 -379 -150 -83 -77 -146 -171 -207 -312 -63 -143
-126 -220 -216 -264 -49 -24 -60 -26 -94 -17 -36 9 -45 7 -102 -23 -109 -57
-203 -78 -352 -77 -196 1 -349 50 -500 158 -73 51 -195 179 -231 242 -27 45
-44 60 -23 20 30 -58 119 -165 208 -249 147 -139 285 -211 468 -243 96 -17
262 -19 338 -4 134 26 133 26 210 -36 127 -103 234 -151 359 -161 116 -10 249
36 399 138 41 28 64 37 78 33 55 -18 149 33 149 81 0 21 2 23 25 12 19 -8 29
-8 48 4 12 9 32 18 42 21 19 4 19 5 0 6 -13 1 -25 12 -31 29 -10 25 -8 31 10
42 24 15 69 23 141 24 44 1 50 -2 50 -19 0 -15 -7 -20 -27 -20 -26 1 -26 0
-11 -17 34 -37 73 -4 50 43 -13 24 -18 25 -97 28 l-35 2 35 30 c19 17 48 39
63 49 28 18 30 17 85 -8 86 -40 177 -37 261 8 40 22 82 56 114 92 40 45 53 55
60 43 5 -9 23 -15 45 -15 21 0 44 -6 52 -12 12 -11 12 -10 1 5 -9 11 -27 17
-51 17 -47 0 -55 17 -35 76 8 25 15 76 15 114 0 111 -52 207 -150 275 -22 15
-40 31 -40 34 0 3 10 12 22 20 19 12 23 11 37 -7 29 -36 56 -42 186 -42 144 0
174 9 223 64 36 41 42 87 17 135 -14 28 -13 31 17 67 37 47 88 156 114 244 27
94 28 407 0 495 -15 49 -17 77 -12 151 8 116 -5 176 -57 279 -40 77 -137 189
-195 226 -23 14 -21 16 105 120 126 103 129 105 158 93 37 -15 65 -2 65 30 0
32 -37 76 -64 76 -23 0 -46 -17 -46 -35 0 -5 5 -2 11 8 22 38 88 10 74 -32 -9
-30 -54 -39 -73 -15 -12 15 -14 16 -9 2 4 -12 -27 -44 -123 -123 -111 -91
-132 -105 -149 -96 -47 26 -30 8 25 -25 102 -61 164 -135 204 -242 25 -67 28
-163 7 -214 -15 -35 -14 -40 10 -99 20 -51 26 -85 30 -183 13 -289 -57 -498
-221 -662 -96 -96 -198 -147 -303 -152 -61 -4 -76 -8 -88 -25 -22 -32 -19 -43
23 -68 124 -74 165 -138 165 -258 0 -100 -28 -173 -94 -246 -69 -74 -139 -108
-227 -108 -49 0 -80 6 -115 23 -56 26 -62 34 -42 50 11 9 19 8 37 -4 12 -9 27
-16 33 -16 5 1 -2 8 -17 16 -16 8 -28 21 -28 29 0 19 3 19 42 -5 18 -11 40
-20 48 -20 8 0 -4 9 -27 20 l-43 19 22 33 c22 32 25 33 59 24 53 -14 135 17
166 63 38 56 27 137 -27 201 -17 21 -16 16 5 -25 32 -61 29 -108 -10 -164 -30
-45 -61 -61 -114 -61 -46 0 -64 18 -55 54 5 22 9 24 26 15 10 -6 27 -8 36 -6
12 3 11 5 -5 6 -28 1 -29 22 -6 61 19 32 56 56 72 46 21 -14 12 -64 -15 -85
-15 -12 -22 -21 -17 -21 5 0 19 10 31 23 32 34 29 82 -8 119 -26 25 -36 29
-62 24 -47 -9 -66 -32 -88 -105 -26 -88 -79 -176 -141 -232 -27 -26 -148 -112
-269 -193 -395 -263 -453 -293 -590 -303 -62 -4 -88 -1 -152 20 -78 25 -176
86 -232 146 -26 27 -27 31 -10 31 11 0 37 -12 59 -26 l40 -25 -30 25 -30 26
25 1 c14 0 52 4 85 8 58 8 61 7 96 -24 114 -102 299 -79 417 50 57 62 72 107
72 219 l0 75 38 10 c63 18 61 22 65 -116 l3 -128 2 145 c1 80 -2 140 -6 133
-4 -6 -25 -14 -47 -18 -22 -4 -48 -12 -57 -17 -16 -7 -18 -4 -18 27 0 30 3 35
24 35 31 0 50 24 44 55 -3 14 -4 25 -2 25 2 0 20 -15 41 -33 24 -20 15 -6 -24
37 -35 38 -63 72 -63 76 0 15 37 23 133 29 l97 6 0 -165 c0 -160 -5 -190 -32
-190 -4 0 -8 38 -8 84 0 47 -4 87 -9 90 -5 4 -20 2 -33 -3 -23 -10 -23 -10 5
-10 l27 -1 0 -79 c0 -44 4 -82 10 -86 10 -6 50 13 62 30 4 6 8 83 8 171 0 154
1 162 20 167 20 5 21 2 19 -161 -1 -134 2 -167 13 -167 10 0 14 33 16 151 l3
152 46 11 c53 14 60 9 66 -39 3 -30 4 -29 7 15 3 48 4 48 9 -19 l6 -70 17 35
c9 19 20 57 23 84 6 44 13 56 60 100 30 28 59 63 64 78 7 17 11 116 11 242 0
268 -1 265 99 280 29 5 56 18 80 41 43 38 61 32 61 -23 0 -33 0 -33 50 -33 37
0 55 5 70 20 19 19 20 33 20 360 l0 340 39 16 c45 18 66 57 58 107 l-6 32 15
-30 15 -30 -6 30 c-9 48 -38 65 -110 65 -94 0 -108 -16 -116 -122 l-6 -83 -1
90 c-1 94 3 107 48 138 13 9 19 17 11 17 -19 0 -71 -56 -72 -77 0 -10 -2 -120
-3 -246 -3 -203 -5 -229 -21 -247 -23 -25 -45 -26 -52 0 -4 15 -9 17 -23 10
-10 -6 -36 -10 -57 -10 l-38 0 3 353 c4 338 5 353 24 374 12 12 36 27 55 34
18 6 38 19 43 30 16 30 26 610 11 647 -24 57 -96 69 -142 23 l-29 -30 2 -283
3 -283 23 -3 22 -3 0 283 c0 156 4 289 9 297 5 8 16 11 25 8 14 -6 16 -40 16
-297 0 -277 -1 -291 -20 -310 -26 -26 -60 -25 -94 1 l-27 21 3 293 3 294 30
31 c55 57 151 59 195 3 18 -24 20 -40 20 -204 0 -192 1 -195 52 -168 36 19 48
69 47 196 l-2 118 -11 -137 c-9 -107 -15 -141 -28 -155 -17 -16 -17 -8 -15
158 l4 174 -31 33 c-25 27 -27 32 -11 27 18 -6 18 -5 3 5 -9 6 -42 15 -72 21
-68 12 -122 0 -167 -38 -56 -48 -59 -64 -59 -378 l0 -286 24 -24 23 -23 -26
-26 -26 -26 -5 -223 -5 -222 -7 165 c-15 340 -21 991 -9 1031 7 23 27 51 53
73 23 20 39 36 35 36 -4 0 -24 -16 -46 -35 l-39 -35 -4 30 c-3 16 -2 30 1 30
3 1 20 12 36 26 l30 26 -32 -16 c-37 -18 -51 -3 -25 27 14 15 14 17 1 12 -11
-4 -22 8 -37 42 -13 26 -24 58 -27 70 -2 12 -8 31 -14 42 -6 11 -11 30 -12 43
-1 23 -1 23 -8 -2 l-7 -24 -21 34 c-12 19 -39 51 -59 70 -36 33 -36 32 5 -13z
m425 -815 c3 -170 4 -316 1 -324 -4 -9 -26 -23 -51 -33 -73 -28 -74 -31 -74
-375 0 -260 -2 -300 -15 -300 -13 0 -15 41 -15 305 0 322 4 358 47 384 17 11
17 12 -2 9 -10 -2 -30 -18 -42 -37 -23 -33 -23 -38 -23 -327 0 -292 5 -344 35
-344 13 0 15 -21 15 -134 0 -146 0 -146 -61 -146 l-29 0 5 477 c5 398 8 482
21 500 12 20 23 23 72 23 102 0 97 -18 94 327 -1 164 -5 307 -8 318 -5 19 -4
19 9 3 11 -14 15 -85 21 -326z m301 -671 c10 -31 -14 -67 -61 -89 l-44 -22 0
-263 c0 -197 -3 -266 -12 -276 -10 -11 -10 -13 0 -7 17 10 17 -135 0 -152 -7
-7 -32 -12 -56 -12 l-44 0 5 38 c2 20 14 53 25 72 28 45 28 105 1 149 -12 21
-17 40 -13 50 4 9 10 102 13 206 3 105 10 197 16 205 5 8 10 21 12 29 9 61 44
89 115 90 28 1 38 -4 43 -18z m-347 -531 l23 -69 -20 -38 c-11 -21 -29 -44
-40 -50 -28 -17 -131 -29 -131 -15 0 6 -3 17 -6 26 -5 13 1 16 33 16 67 0 76
14 74 113 -2 85 -1 87 21 87 20 0 26 -11 46 -70z m140 -13 c17 -13 15 -62 -4
-81 -37 -37 -98 -3 -92 50 5 46 56 62 96 31z m-79 -139 c-28 -38 -67 -64 -119
-78 -25 -6 -58 -21 -74 -32 l-29 -21 6 24 c4 13 7 34 7 47 0 16 6 22 23 22 56
0 98 21 129 64 l30 43 23 -21 23 -20 -19 -28z m51 -7 c-28 -54 -132 -121 -187
-121 -6 0 -21 -12 -32 -26 -20 -25 -21 -39 -21 -251 0 -250 0 -251 -70 -318
-48 -45 -70 -89 -70 -137 0 -18 -5 -40 -11 -48 -7 -11 -9 5 -7 57 3 65 7 76
34 105 17 18 44 51 60 72 l29 39 5 243 c6 273 6 275 84 295 23 5 48 12 58 15
9 3 38 27 64 54 26 27 53 46 60 43 10 -3 11 -10 4 -22z m540 -420 c28 -53 -4
-127 -69 -161 -34 -17 -59 -20 -160 -20 -66 0 -132 5 -148 11 -26 11 -24 12
46 25 88 15 198 67 261 123 52 46 56 48 70 22z m-1524 -483 c14 -24 37 -53 51
-64 23 -20 26 -29 30 -131 4 -84 2 -122 -11 -166 -46 -158 -246 -245 -393
-172 -62 31 -90 67 -68 85 12 10 19 8 36 -14 82 -104 304 -71 371 56 34 65 33
182 -2 231 -14 20 -39 46 -55 58 l-30 23 32 -35 c42 -45 63 -97 63 -159 0
-127 -82 -208 -221 -218 -105 -7 -178 37 -140 85 l18 21 43 -29 c33 -23 53
-29 89 -28 31 2 36 3 16 6 -54 7 -71 12 -98 33 -30 23 -27 41 10 65 23 16 26
16 46 -3 75 -68 137 -44 137 53 0 28 3 32 20 28 16 -4 20 -14 22 -52 1 -40 2
-42 5 -11 7 51 -13 104 -52 146 -31 32 -39 36 -75 32 -48 -4 -50 3 -10 65 33
53 42 57 58 25 6 -13 11 -17 11 -10 1 7 -3 22 -9 32 -8 15 -3 25 27 54 21 20
41 36 45 36 4 0 19 -19 34 -42z m-124 -235 c38 -34 8 -113 -44 -113 -53 0 -77
71 -38 110 24 24 57 26 82 3z m618 -228 c14 -16 5 -51 -14 -58 -17 -7 -56 19
-56 37 0 33 48 48 70 21z m-80 -70 c0 -56 -110 -111 -147 -74 -8 8 4 19 45 41
31 17 64 36 72 44 21 20 30 17 30 -11z"/>
<path d="M3962 2778 c-18 -11 -31 -22 -29 -25 6 -5 67 30 67 40 0 9 2 9 -38
-15z"/>
<path d="M2806 841 c-10 -11 -31 -25 -47 -31 -16 -7 -28 -15 -25 -17 7 -7 59
23 80 46 11 12 17 21 14 21 -3 0 -13 -9 -22 -19z"/>
<path d="M3700 4350 c0 -5 5 -10 11 -10 5 0 7 5 4 10 -3 6 -8 10 -11 10 -2 0
-4 -4 -4 -10z"/>
<path d="M1407 4344 c-8 -8 1 -24 14 -24 5 0 9 7 9 15 0 15 -12 20 -23 9z"/>
<path d="M1708 4343 c7 -3 16 -2 19 1 4 3 -2 6 -13 5 -11 0 -14 -3 -6 -6z"/>
<path d="M3474 4328 l-19 -23 23 19 c21 18 27 26 19 26 -2 0 -12 -10 -23 -22z"/>
<path d="M3623 4324 c37 -37 37 -92 0 -134 -30 -33 -73 -42 -123 -27 -24 8
-24 7 5 -18 17 -14 50 -32 75 -40 25 -7 38 -14 29 -14 -8 -1 -24 -8 -35 -16
-15 -12 -12 -12 21 1 22 9 76 20 120 24 74 7 76 7 23 9 l-57 1 11 31 c6 17 8
46 5 66 -7 40 -60 128 -84 137 -9 4 -5 -5 10 -20z"/>
<path d="M2839 4323 c-13 -16 -12 -17 4 -4 16 13 21 21 13 21 -2 0 -10 -8 -17
-17z"/>
<path d="M3875 4329 c-10 -15 3 -25 16 -12 7 7 7 13 1 17 -6 3 -14 1 -17 -5z"/>
<path d="M1630 4320 c-8 -5 -10 -10 -5 -10 6 0 17 5 25 10 8 5 11 10 5 10 -5
0 -17 -5 -25 -10z"/>
<path d="M2031 4326 c2 -2 15 -9 29 -15 24 -11 24 -11 6 3 -16 13 -49 24 -35
12z"/>
<path d="M1584 4294 c-18 -14 -18 -15 4 -4 12 6 22 13 22 15 0 8 -5 6 -26 -11z"/>
<path d="M2622 4301 c-8 -5 -12 -21 -10 -37 3 -26 7 -29 38 -29 29 0 36 4 38
23 6 41 -31 65 -66 43z"/>
<path d="M2794 4288 l-19 -23 23 19 c12 11 22 21 22 23 0 8 -8 2 -26 -19z"/>
<path d="M4107 4283 c14 -26 15 -35 5 -57 -16 -36 -55 -53 -90 -40 l-27 10 3
-100 3 -101 -23 22 c-28 25 -89 63 -103 63 -5 0 13 -13 40 -29 66 -38 118 -96
140 -157 10 -27 27 -58 37 -69 10 -12 21 -35 24 -53 6 -32 6 -32 -32 -32 -29
0 -35 -3 -24 -10 8 -5 25 -10 38 -10 35 0 30 -45 -7 -65 -48 -24 -44 -33 5
-11 32 16 44 27 44 43 0 12 7 26 16 31 15 8 15 12 -1 46 -10 21 -30 49 -44 64
-36 37 -51 74 -53 135 -1 46 -2 47 -5 13 l-4 -39 -20 29 c-15 23 -19 47 -19
118 l0 89 24 -22 c20 -18 29 -21 57 -14 18 5 42 21 53 36 l20 28 -24 45 c-14
25 -31 50 -38 56 -7 6 -5 -3 5 -19z"/>
<path d="M1539 4263 c-13 -16 -12 -17 4 -4 9 7 17 15 17 17 0 8 -8 3 -21 -13z"/>
<path d="M4255 4270 c-3 -6 1 -7 9 -4 18 7 21 14 7 14 -6 0 -13 -4 -16 -10z"/>
<path d="M4344 4259 c33 -26 36 -79 6 -109 -35 -35 -120 -19 -120 22 0 6 -3 8
-6 5 -4 -4 1 -18 10 -31 13 -21 16 -58 18 -208 l3 -183 2 178 c2 97 6 177 9
177 3 0 14 -5 25 -10 18 -10 19 -24 19 -288 0 -158 -5 -293 -10 -314 -6 -20
-25 -49 -42 -63 -28 -24 -38 -26 -97 -23 l-65 3 -7 -40 c-4 -21 -11 -41 -16
-42 -23 -8 -42 -30 -48 -54 -6 -25 -5 -26 51 -33 31 -3 59 -4 62 -1 3 3 -4 5
-16 5 -11 0 -27 3 -36 6 -14 5 -13 8 4 23 12 9 24 35 28 60 l7 45 63 -3 c108
-4 142 38 142 177 0 43 5 83 10 88 7 7 9 78 7 195 l-2 184 -3 -187 c-1 -111
-6 -189 -12 -193 -7 -4 -10 68 -10 208 l0 215 29 5 c16 3 36 13 45 22 18 19
21 76 5 108 -15 29 -60 77 -72 77 -5 0 2 -9 17 -21z"/>
<path d="M1754 4255 c-84 -18 -138 -48 -206 -113 -62 -59 -128 -174 -127 -221
0 -18 5 -9 18 29 50 155 193 277 351 299 164 22 320 -44 422 -177 69 -91 78
-131 78 -357 0 -106 5 -216 10 -246 16 -85 61 -167 143 -264 42 -49 90 -117
106 -150 56 -112 61 -152 61 -456 0 -326 7 -306 -126 -370 -109 -51 -201 -139
-244 -230 -31 -66 -49 -184 -50 -313 0 -51 -2 -57 -15 -46 -8 7 -13 16 -10 20
3 5 0 12 -6 16 -22 13 -46 84 -40 117 5 25 12 33 34 35 l27 3 0 130 c0 162
-10 191 -75 220 -76 34 -75 38 -75 -202 0 -210 0 -213 26 -256 19 -33 30 -42
43 -38 39 12 133 -121 158 -222 58 -235 -162 -493 -422 -493 -158 0 -338 107
-410 245 -14 28 -23 39 -19 25 24 -86 178 -246 296 -307 73 -38 74 -38 193
-38 116 0 122 1 183 33 152 79 242 215 242 367 0 28 -4 64 -9 81 l-9 31 49
-18 c27 -11 55 -19 62 -18 6 0 -11 9 -40 20 -48 18 -53 24 -68 70 -10 28 -15
52 -13 54 2 2 25 -10 51 -27 49 -32 162 -54 174 -35 4 6 1 7 -7 2 -9 -6 -10
-2 -5 16 20 64 64 129 142 210 106 110 172 146 283 155 100 8 137 20 162 55
14 19 34 31 57 35 20 4 41 11 47 15 8 7 13 -11 17 -58 7 -88 -9 -128 -55 -142
-18 -5 -25 -10 -16 -10 29 -2 65 20 77 46 7 16 11 137 11 369 l0 345 -25 23
c-32 30 -62 35 -205 36 -157 1 -150 2 -150 -18 0 -15 11 -18 78 -20 74 -2 213
-17 260 -29 l23 -5 -3 -208 c-3 -206 -3 -209 -28 -236 -66 -71 -200 -71 -200
0 0 36 22 48 74 41 56 -9 99 13 94 48 -3 23 -9 24 -73 8 -22 -6 -130 -11 -241
-11 l-201 0 -61 -31 c-104 -52 -184 -161 -211 -287 -22 -103 -12 -174 31 -219
23 -24 71 -30 98 -13 11 7 5 10 -23 10 -31 0 -39 4 -47 26 -15 39 -12 46 15
28 34 -22 57 -12 115 54 67 75 105 153 132 273 l22 99 117 0 c132 0 149 -4
149 -33 0 -11 8 -29 17 -39 13 -15 15 -23 7 -36 -9 -14 -33 -18 -125 -22 -87
-4 -107 -7 -85 -14 16 -5 92 -6 168 -2 149 7 160 3 107 -37 -18 -12 -54 -21
-117 -27 -109 -10 -174 -37 -246 -101 -56 -50 -161 -178 -171 -209 -5 -15 -16
-20 -43 -22 -36 -1 -36 -1 -6 -5 26 -3 31 -8 27 -24 -6 -23 -24 -24 -86 -5
-105 31 -147 91 -147 208 0 141 59 283 160 385 81 82 130 104 255 113 l100 8
-106 -1 -107 -2 29 20 c54 38 59 70 59 348 0 282 -2 297 -70 439 -57 119 -69
138 -137 213 -47 50 -64 77 -72 113 -6 26 -10 154 -10 292 0 269 -9 350 -46
425 -27 54 -107 166 -114 159 -2 -2 5 -14 15 -27 38 -42 102 -152 113 -192 6
-22 10 -101 10 -175 -1 -126 -2 -131 -10 -66 -24 188 -63 280 -158 376 -75 76
-144 115 -240 136 -80 17 -107 16 -187 -1z m681 -2127 c-124 -90 -180 -219
-192 -440 -6 -111 -13 -139 -27 -102 -11 28 -6 166 9 247 28 161 138 318 220
317 17 -1 16 -4 -10 -22z m-265 -149 c0 -92 -1 -99 -20 -99 -18 0 -20 7 -22
63 l-2 62 -3 -62 c-3 -49 -7 -63 -19 -63 -14 0 -15 11 -10 73 3 39 5 73 6 75
0 2 4 1 9 -2 5 -3 12 4 15 17 7 21 7 21 16 2 5 -11 9 -14 9 -7 1 7 -3 22 -9
32 -8 15 -6 17 10 13 18 -5 20 -14 20 -104z m505 6 c-17 -88 -41 -158 -71
-211 -24 -41 -125 -144 -141 -144 -38 1 -56 62 -41 136 15 74 78 178 109 182
44 6 52 11 40 26 -16 19 6 40 56 56 21 7 42 16 47 21 15 14 15 8 1 -66z m-505
-125 c0 -6 -27 -10 -60 -10 -33 0 -60 4 -60 10 0 6 27 10 60 10 33 0 60 -4 60
-10z"/>
<path d="M2591 1938 c-3 -65 -64 -178 -96 -178 -6 0 -24 -12 -41 -27 -17 -16
-23 -23 -15 -16 9 6 33 18 53 26 21 9 46 30 58 49 28 46 52 123 47 150 -4 20
-4 20 -6 -4z"/>
<path d="M2508 1842 c6 -62 12 -67 12 -9 0 25 -4 48 -9 51 -5 3 -6 -16 -3 -42z"/>
<path d="M2155 4250 c10 -11 20 -20 23 -20 3 0 -3 9 -13 20 -10 11 -20 20 -23
20 -3 0 3 -9 13 -20z"/>
<path d="M1475 4208 l-40 -43 43 40 c39 36 47 45 39 45 -2 0 -21 -19 -42 -42z"/>
<path d="M2729 4233 c-13 -16 -12 -17 4 -4 16 13 21 21 13 21 -2 0 -10 -8 -17
-17z"/>
<path d="M2923 4243 c15 -2 37 -2 50 0 12 2 0 4 -28 4 -27 0 -38 -2 -22 -4z"/>
<path d="M3058 4243 c7 -3 16 -2 19 1 4 3 -2 6 -13 5 -11 0 -14 -3 -6 -6z"/>
<path d="M4225 4239 c-4 -6 -5 -12 -2 -15 2 -3 7 2 10 11 7 17 1 20 -8 4z"/>
<path d="M2361 4224 c0 -11 3 -14 6 -6 3 7 2 16 -1 19 -3 4 -6 -2 -5 -13z"/>
<path d="M2760 4175 c-40 -36 -84 -68 -97 -72 -41 -10 -187 3 -220 20 -17 9
-40 31 -52 49 -11 18 -21 27 -21 20 0 -8 22 -37 49 -65 l50 -52 100 0 100 0
68 67 c38 37 82 74 98 82 17 9 23 16 14 16 -9 0 -49 -29 -89 -65z"/>
<path d="M1353 4213 c15 -2 37 -2 50 0 12 2 0 4 -28 4 -27 0 -38 -2 -22 -4z"/>
<path d="M2690 4210 c-9 -6 -10 -10 -3 -10 6 0 15 5 18 10 8 12 4 12 -15 0z"/>
<path d="M3330 4216 c0 -2 8 -10 18 -17 15 -13 16 -12 3 4 -13 16 -21 21 -21
13z"/>
<path d="M3842 4184 c-7 -8 -8 -14 -3 -14 10 0 25 19 20 25 -2 1 -10 -3 -17
-11z"/>
<path d="M1774 4180 c-116 -24 -214 -107 -274 -232 l-40 -82 2 -235 2 -236 7
185 c3 102 7 214 8 249 1 71 11 74 22 8 6 -38 7 -35 8 26 1 84 29 142 98 208
81 79 121 94 243 94 95 0 110 -3 157 -27 97 -52 158 -122 188 -221 8 -24 14
-33 14 -21 1 34 -57 139 -100 183 -84 84 -222 125 -335 101z"/>
<path d="M3046 4141 c196 -6 205 -9 230 -66 8 -18 13 -23 14 -13 0 10 -13 32
-29 50 l-29 33 -184 1 -183 1 181 -6z"/>
<path d="M2770 4085 l-60 -55 -131 0 c-141 0 -158 5 -202 54 l-29 31 20 -30
c43 -66 102 -91 187 -81 29 3 75 3 101 -2 49 -7 48 -7 -31 -13 l-80 -5 105 -1
c58 -1 94 2 81 6 -24 6 -24 7 20 61 25 30 60 63 79 72 21 11 28 18 17 18 -9 0
-44 -25 -77 -55z"/>
<path d="M1400 4110 c-6 -11 -8 -20 -6 -20 3 0 10 9 16 20 6 11 8 20 6 20 -3
0 -10 -9 -16 -20z"/>
<path d="M1765 4111 c-54 -14 -111 -49 -148 -90 -65 -72 -67 -84 -67 -374 l0
-260 39 -51 c22 -28 68 -78 102 -111 l63 -60 -55 63 c-30 34 -69 81 -87 104
l-33 41 3 266 c3 298 3 297 79 371 123 120 361 76 433 -80 19 -42 21 -68 27
-370 l5 -325 0 335 -1 335 -29 53 c-53 96 -136 150 -239 157 -34 2 -75 1 -92
-4z"/>
<path d="M1148 4093 c12 -2 32 -2 45 0 12 2 2 4 -23 4 -25 0 -35 -2 -22 -4z"/>
<path d="M3808 4093 c7 -3 16 -2 19 1 4 3 -2 6 -13 5 -11 0 -14 -3 -6 -6z"/>
<path d="M1095 4080 c-3 -6 1 -7 9 -4 18 7 21 14 7 14 -6 0 -13 -4 -16 -10z"/>
<path d="M1235 4078 c11 -6 31 -20 45 -32 14 -11 11 -6 -7 12 -18 17 -38 32
-45 32 -7 0 -4 -6 7 -12z"/>
<path d="M4150 4086 c0 -2 7 -7 16 -10 8 -3 12 -2 9 4 -6 10 -25 14 -25 6z"/>
<path d="M2892 4073 c-24 -5 -82 -75 -82 -100 0 -20 28 -15 35 7 3 11 18 29
32 40 23 18 40 20 148 20 119 0 123 -1 149 -26 24 -24 26 -34 26 -107 l0 -80
-44 -41 -45 -41 -41 53 c-59 77 -59 80 -8 85 33 3 28 4 -23 5 -36 1 -73 8 -83
15 -16 12 -16 13 1 29 10 9 45 20 80 23 56 7 62 6 73 -15 6 -12 9 -29 5 -38
-4 -12 -3 -14 4 -7 19 19 23 69 7 90 -13 17 -26 20 -106 20 -98 0 -110 -6
-110 -56 0 -21 11 -34 50 -59 103 -66 165 -175 201 -349 26 -131 24 -283 -6
-346 -27 -58 -159 -185 -230 -222 -74 -39 -183 -76 -201 -69 -18 7 -19 135 -1
158 6 9 30 21 52 27 22 6 47 15 55 21 19 12 8 13 -22 1 -13 -5 -42 -14 -65
-20 l-43 -12 0 -94 c0 -85 2 -96 25 -123 27 -33 15 -34 175 16 30 9 60 17 67
17 6 0 15 4 20 9 5 5 2 6 -6 1 -9 -5 -12 -4 -8 3 8 11 44 5 67 -12 13 -10 13
-9 1 7 -7 9 -20 17 -29 17 -8 0 11 17 44 38 l59 38 6 -83 c7 -100 31 -142 113
-200 31 -21 56 -44 56 -51 0 -7 4 -11 9 -8 11 7 21 -17 21 -52 l0 -27 -26 33
c-14 18 -47 43 -73 57 -26 13 -53 31 -61 40 -7 9 -23 21 -34 27 -39 19 49 -51
100 -81 91 -52 89 -43 89 -511 0 -442 1 -435 -58 -470 -18 -11 -26 -20 -19
-20 29 0 80 65 87 111 9 64 2 891 -9 912 -5 10 -4 17 2 17 6 0 13 -7 15 -15 4
-11 5 -11 3 2 -1 12 -17 22 -50 31 -34 10 -63 28 -96 61 -52 52 -60 77 -60
183 0 60 4 74 25 99 l24 30 4 -108 3 -108 2 118 c1 67 7 128 14 140 32 60 24
248 -17 397 -17 63 -9 80 30 62 l25 -12 1 -327 c2 -313 2 -321 11 -168 5 88 7
234 6 323 -3 160 -4 164 -28 184 -14 11 -34 18 -47 15 -17 -3 -23 0 -23 14 0
9 -3 25 -7 35 -6 15 -1 16 42 12 26 -3 43 -3 37 1 -17 10 -30 350 -14 363 16
14 15 23 -4 42 -13 13 -40 16 -157 15 -78 -1 -152 -4 -165 -6z"/>
<path d="M1058 4053 c-18 -21 -31 -43 -25 -43 2 0 13 14 25 30 25 33 24 41 0
13z"/>
<path d="M3713 4063 c15 -2 39 -2 55 0 15 2 2 4 -28 4 -30 0 -43 -2 -27 -4z"/>
<path d="M3648 4053 c7 -3 16 -2 19 1 4 3 -2 6 -13 5 -11 0 -14 -3 -6 -6z"/>
<path d="M3825 4050 c27 -12 43 -12 25 0 -8 5 -22 9 -30 9 -10 0 -8 -3 5 -9z"/>
<path d="M3605 4040 c-3 -6 1 -7 9 -4 18 7 21 14 7 14 -6 0 -13 -4 -16 -10z"/>
<path d="M1128 4025 c-29 -16 -50 -70 -41 -105 3 -12 -2 -29 -13 -41 -17 -19
-19 -45 -24 -300 -3 -183 -2 -279 5 -279 6 0 9 96 7 275 -3 264 -2 275 18 295
26 26 36 25 65 -5 14 -13 25 -20 25 -15 0 5 -11 17 -25 28 -14 11 -25 26 -25
34 0 24 45 58 83 65 68 11 67 19 67 -348 0 -180 3 -330 8 -332 13 -9 -2 666
-16 690 -29 51 -82 66 -134 38z"/>
<path d="M1735 4020 c-51 -25 -102 -83 -115 -129 -11 -40 -14 -458 -3 -448 3
4 17 -2 29 -14 16 -15 24 -17 29 -8 5 7 4 10 -2 6 -6 -4 -19 3 -29 14 -17 19
-19 38 -18 215 1 106 4 204 7 217 4 13 25 38 48 57 24 19 39 28 34 21 -5 -9
-3 -12 6 -9 8 3 13 11 11 17 -1 7 2 10 7 6 12 -7 62 5 57 14 -2 3 14 5 37 4
32 -2 37 -1 22 6 -28 13 0 13 55 0 25 -7 53 -12 62 -13 20 -3 55 -32 71 -61 8
-13 14 -113 17 -290 l6 -270 2 260 c1 233 0 264 -17 300 -20 45 -69 91 -118
112 -48 20 -150 16 -198 -7z"/>
<path d="M3748 4023 c7 -3 16 -2 19 1 4 3 -2 6 -13 5 -11 0 -14 -3 -6 -6z"/>
<path d="M3688 4013 c7 -3 16 -2 19 1 4 3 -2 6 -13 5 -11 0 -14 -3 -6 -6z"/>
<path d="M3798 4013 c7 -3 16 -2 19 1 4 3 -2 6 -13 5 -11 0 -14 -3 -6 -6z"/>
<path d="M4113 3940 c0 -47 2 -66 4 -42 2 23 2 61 0 85 -2 23 -4 4 -4 -43z"/>
<path d="M1023 3965 c0 -22 2 -30 4 -17 2 12 2 30 0 40 -3 9 -5 -1 -4 -23z"/>
<path d="M3888 3977 c85 -63 102 -111 102 -289 0 -116 -3 -149 -18 -178 -18
-36 -66 -70 -101 -73 -20 -1 -21 -7 -21 -125 0 -148 -9 -171 -81 -207 -59 -31
-74 -59 -61 -121 5 -23 5 -48 1 -56 -5 -7 -8 -76 -7 -153 l2 -140 5 140 c7
162 23 209 94 272 38 33 39 34 9 16 -19 -11 -47 -40 -63 -64 l-29 -44 0 37 c0
38 23 64 89 100 18 10 38 33 47 53 8 20 22 35 32 36 14 0 14 2 2 6 -24 9 -27
20 -29 99 -2 73 -2 74 26 85 113 43 123 63 134 258 5 111 4 154 -7 190 -18 62
-68 135 -108 161 -45 27 -57 25 -18 -3z"/>
<path d="M1336 3958 c-3 -13 -5 -162 -4 -333 l2 -310 6 330 c3 182 4 331 4
333 -1 1 -4 -8 -8 -20z"/>
<path d="M1916 3952 c21 -16 49 -49 62 -74 22 -45 22 -52 20 -344 l-3 -298
-25 -13 c-17 -9 -20 -13 -8 -13 21 0 46 25 54 54 3 13 4 146 2 297 l-3 274
-28 47 c-25 43 -82 98 -102 98 -4 0 10 -13 31 -28z"/>
<path d="M2778 3973 c7 -3 16 -2 19 1 4 3 -2 6 -13 5 -11 0 -14 -3 -6 -6z"/>
<path d="M1681 3914 c-20 -25 -21 -38 -19 -248 l2 -221 6 220 c4 189 8 225 23
248 22 35 15 35 -12 1z"/>
<path d="M1755 3925 c-47 -25 -55 -42 -53 -119 2 -65 2 -66 5 -16 5 83 11 98
43 115 35 18 54 19 44 3 -4 -7 -3 -8 5 -4 6 4 9 11 7 15 -3 4 11 8 30 9 25 1
42 -5 60 -23 31 -31 31 -59 -1 -90 -29 -30 -68 -32 -95 -5 -11 11 -20 16 -20
12 0 -4 15 -22 33 -40 24 -24 42 -32 67 -32 40 0 52 7 68 35 9 15 11 -32 12
-206 0 -187 -3 -229 -15 -239 -10 -8 -47 -11 -120 -8 -58 1 -105 0 -105 -4 0
-5 49 -8 109 -8 86 0 113 3 125 16 14 13 16 50 16 246 l0 231 -30 52 c-16 28
-41 57 -55 63 -36 17 -94 15 -130 -3z"/>
<path d="M2663 3903 c9 -2 25 -2 35 0 9 3 1 5 -18 5 -19 0 -27 -2 -17 -5z"/>
<path d="M2748 3893 c7 -3 16 -2 19 1 4 3 -2 6 -13 5 -11 0 -14 -3 -6 -6z"/>
<path d="M3294 3765 c0 -77 2 -107 3 -67 2 40 2 103 0 140 -2 37 -3 4 -3 -73z"/>
<path d="M3900 3875 c13 -14 26 -25 28 -25 3 0 -5 11 -18 25 -13 14 -26 25
-28 25 -3 0 5 -11 18 -25z"/>
<path d="M1414 3630 c0 -146 2 -205 3 -132 2 72 2 192 0 265 -1 72 -3 13 -3
-133z"/>
<path d="M3412 3865 c0 -16 2 -22 5 -12 2 9 2 23 0 30 -3 6 -5 -1 -5 -18z"/>
<path d="M2830 3870 c8 -5 20 -10 25 -10 6 0 3 5 -5 10 -8 5 -19 10 -25 10 -5
0 -3 -5 5 -10z"/>
<path d="M2214 3670 c0 -107 2 -151 3 -97 2 53 2 141 0 195 -1 53 -3 9 -3 -98z"/>
<path d="M2463 3853 c15 -2 37 -2 50 0 12 2 0 4 -28 4 -27 0 -38 -2 -22 -4z"/>
<path d="M1010 3831 c0 -25 6 -27 13 -6 4 8 2 17 -3 20 -6 4 -10 -3 -10 -14z"/>
<path d="M1117 3832 c-15 -16 -17 -49 -17 -255 0 -146 4 -238 10 -242 7 -4 10
80 10 244 0 228 2 251 18 260 9 6 12 11 6 11 -6 0 -18 -8 -27 -18z"/>
<path d="M2900 3836 c0 -2 8 -10 18 -17 15 -13 16 -12 3 4 -13 16 -21 21 -21
13z"/>
<path d="M1172 3805 c0 -16 2 -22 5 -12 2 9 2 23 0 30 -3 6 -5 -1 -5 -18z"/>
<path d="M2539 3794 c-34 -14 -59 -47 -59 -77 0 -7 -15 -17 -32 -22 l-33 -10
0 -150 0 -150 25 -3 c23 -3 23 -2 7 10 -16 12 -17 29 -15 153 3 135 4 140 25
143 16 2 22 -3 25 -19 2 -12 10 -24 18 -27 12 -4 13 -2 3 9 -24 24 -15 78 16
110 29 28 32 29 128 29 54 0 114 -5 134 -10 87 -24 162 -108 163 -182 1 -49
-14 -62 -30 -27 -73 159 -79 163 -225 167 -88 3 -115 1 -134 -12 -32 -21 -31
-31 4 -49 26 -13 32 -13 52 1 17 12 49 16 120 17 54 0 95 -3 93 -7 -3 -4 5
-12 16 -18 11 -6 27 -25 36 -43 l17 -32 -24 21 c-41 37 -65 44 -146 44 -76 0
-123 -13 -130 -37 -3 -8 31 -12 121 -15 120 -3 126 -4 168 -33 63 -45 93 -104
93 -185 -1 -107 -62 -190 -180 -246 -41 -20 -45 -24 -24 -24 27 0 85 34 131
77 26 24 27 25 21 4 -3 -12 -22 -35 -42 -52 -34 -29 -34 -30 -6 -16 37 19 87
71 109 114 28 56 31 133 7 211 -11 39 -21 85 -21 102 0 65 -23 114 -80 170
-36 37 -69 60 -96 68 -58 17 -210 15 -255 -4z"/>
<path d="M3405 3370 c0 -245 1 -345 2 -223 2 123 2 323 0 445 -1 123 -2 23 -2
-222z"/>
<path d="M3911 3794 c0 -11 3 -14 6 -6 3 7 2 16 -1 19 -3 4 -6 -2 -5 -13z"/>
<path d="M1004 3640 c0 -91 2 -128 3 -82 2 45 2 119 0 165 -1 45 -3 8 -3 -83z"/>
<path d="M2972 3764 c10 -11 31 -45 48 -75 16 -30 30 -49 30 -44 0 17 -57 110
-77 125 -17 14 -17 14 -1 -6z"/>
<path d="M4490 3742 c29 -24 21 -68 -15 -82 -35 -13 -53 -3 -64 34 -5 17 -10
23 -10 14 -2 -29 10 -47 45 -69 40 -24 66 -19 83 17 8 19 8 31 0 47 -16 30
-40 57 -52 57 -5 0 1 -8 13 -18z"/>
<path d="M1182 3534 c-2 -199 0 -224 16 -242 27 -31 69 -55 77 -43 3 6 -1 11
-9 11 -8 0 -28 11 -43 24 l-28 24 -5 224 -6 223 -2 -221z"/>
<path d="M1800 3736 c0 -2 15 -6 34 -8 19 -2 32 0 30 4 -5 8 -64 12 -64 4z"/>
<path d="M4227 3733 c-4 -3 -7 -16 -7 -28 0 -28 -57 -81 -97 -90 -59 -12 -73
-43 -71 -159 1 -57 3 -78 5 -48 3 34 9 52 17 52 24 0 55 35 45 51 -15 24 -10
34 28 54 38 21 73 67 73 98 0 9 9 25 20 34 11 10 20 23 20 30 0 14 -22 18 -33
6z"/>
<path d="M1750 3705 c-7 -9 -11 -17 -9 -20 3 -2 10 5 17 15 14 24 10 26 -8 5z"/>
<path d="M1908 3661 c6 -40 -13 -70 -54 -87 -61 -25 -109 2 -117 66 l-4 35 -1
-37 c-2 -31 5 -44 36 -78 31 -31 46 -40 73 -40 68 0 111 59 89 124 -14 45 -28
54 -22 17z"/>
<path d="M3280 3605 c0 -8 4 -15 9 -15 4 0 20 -11 35 -25 l27 -25 -2 -336 c-1
-277 -4 -336 -15 -341 -25 -9 -65 7 -74 30 -6 16 -9 18 -9 5 -2 -38 90 -67
103 -32 3 9 6 164 6 345 l0 330 -40 39 c-24 23 -40 33 -40 25z"/>
<path d="M4041 3594 c0 -11 3 -14 6 -6 3 7 2 16 -1 19 -3 4 -6 -2 -5 -13z"/>
<path d="M3061 3574 c0 -11 3 -14 6 -6 3 7 2 16 -1 19 -3 4 -6 -2 -5 -13z"/>
<path d="M3298 3377 c4 -279 8 -307 10 -72 1 121 -2 225 -6 232 -4 6 -6 -66
-4 -160z"/>
<path d="M2603 3533 l-113 -4 0 -64 c0 -37 -4 -65 -10 -65 -7 0 -7 -6 0 -17 5
-10 14 -43 20 -73 22 -114 74 -160 180 -160 36 0 70 4 77 8 6 4 -23 7 -65 7
l-77 0 -3 143 c-2 137 -2 142 18 142 19 0 20 -6 20 -125 l0 -125 38 0 c48 0
128 39 172 85 29 30 34 43 38 92 3 48 0 64 -20 93 -29 43 -81 71 -128 68 -19
-1 -86 -4 -147 -5z m-19 -175 l0 -163 6 140 6 140 2 -147 c1 -82 -2 -148 -7
-148 -5 0 -22 15 -39 34 -37 42 -52 107 -52 221 l0 85 43 0 42 0 -1 -162z
m246 124 c17 -13 23 -29 22 -53 -2 -64 -72 -91 -120 -46 -25 22 -25 22 -13 0
16 -31 79 -67 118 -67 31 0 32 -1 19 -20 -22 -34 -102 -78 -150 -83 l-45 -5
-3 125 -3 126 25 5 c14 2 26 1 28 -4 2 -4 14 3 27 16 29 29 64 31 95 6z"/>
<path d="M3073 3475 c0 -33 2 -45 4 -27 2 18 2 45 0 60 -2 15 -4 0 -4 -33z"/>
<path d="M1793 3473 c15 -2 39 -2 55 0 15 2 2 4 -28 4 -30 0 -43 -2 -27 -4z"/>
<path d="M1900 3470 c0 -5 5 -10 10 -10 6 0 10 5 10 10 0 6 -4 10 -10 10 -5 0
-10 -4 -10 -10z"/>
<path d="M2221 3444 c0 -11 3 -14 6 -6 3 7 2 16 -1 19 -3 4 -6 -2 -5 -13z"/>
<path d="M1501 3434 c0 -11 3 -14 6 -6 3 7 2 16 -1 19 -3 4 -6 -2 -5 -13z"/>
<path d="M1022 3420 c-1 -14 3 -43 7 -65 l9 -40 0 35 c0 19 -4 49 -8 65 -7 27
-8 28 -8 5z"/>
<path d="M2236 3390 c3 -19 6 -45 5 -58 0 -13 3 -21 7 -18 5 3 7 -26 6 -64 -3
-87 -30 -141 -119 -240 -113 -126 -110 -115 -110 -400 0 -285 0 -286 93 -349
32 -22 76 -62 97 -90 22 -28 42 -51 46 -51 4 0 31 20 60 45 29 25 97 68 151
95 87 45 98 54 103 83 4 17 5 147 3 287 -3 227 -5 259 -22 293 -11 21 -75 93
-143 160 -87 86 -128 134 -139 164 -9 23 -14 45 -11 50 3 5 -3 36 -14 69 -11
32 -17 43 -13 24z m206 -362 c28 -24 62 -65 77 -93 26 -49 26 -53 25 -240 -1
-111 -6 -207 -13 -232 -17 -63 -70 -134 -125 -168 -43 -26 -60 -30 -135 -33
-78 -3 -91 -1 -141 25 -41 21 -60 38 -74 66 -25 52 -14 57 25 12 36 -41 97
-75 131 -74 18 1 16 3 -8 9 -52 12 -103 50 -124 91 -20 37 -20 43 -5 200 24
252 33 262 34 39 1 -216 8 -242 70 -275 38 -19 123 -20 160 0 42 21 81 72 80
103 -1 25 -2 24 -9 -6 -15 -65 -70 -102 -150 -102 -63 0 -104 22 -125 67 -13
28 -16 67 -13 231 l3 197 48 63 49 62 37 -29 c45 -36 81 -51 121 -51 38 0 87
-42 96 -83 4 -17 9 -27 11 -20 7 21 -29 83 -56 97 -14 7 -45 16 -69 19 -50 6
-85 27 -109 63 -16 26 -16 27 7 46 l24 19 30 -34 c17 -19 52 -42 78 -51 102
-37 128 -95 109 -246 -6 -52 -11 -123 -11 -158 0 -73 -19 -124 -63 -170 -38
-40 -79 -63 -127 -73 -31 -6 -32 -7 -7 -8 68 -3 152 61 186 140 17 39 24 84
32 202 13 197 8 231 -42 279 -21 20 -55 42 -75 47 -35 10 -94 55 -94 73 0 4 8
8 18 8 10 0 27 7 38 15 27 21 30 20 86 -27z m118 -702 c0 -2 -8 -10 -17 -17
-16 -13 -17 -12 -4 4 13 16 21 21 21 13z m-275 -166 c-19 -21 -37 -23 -36 -5
0 8 15 15 50 24 2 1 -4 -8 -14 -19z"/>
<path d="M2178 2839 c-16 -9 -18 -30 -18 -200 0 -188 0 -190 25 -214 13 -14
32 -25 42 -25 11 1 6 6 -13 14 -18 8 -34 24 -37 37 -10 38 -8 352 3 369 6 10
34 17 87 21 l78 6 -75 1 c-41 1 -83 -3 -92 -9z"/>
<path d="M2371 2838 c2 -2 22 -19 43 -38 36 -32 37 -33 21 -7 -17 26 -44 47
-61 47 -4 0 -5 -1 -3 -2z"/>
<path d="M2224 2787 c-2 -7 -3 -64 -2 -127 3 -95 6 -115 21 -124 31 -20 52 4
53 60 l1 49 -4 -47 c-4 -47 -19 -63 -48 -52 -12 5 -15 26 -15 105 l0 99 55 0
c50 0 56 -2 65 -26 6 -14 11 -87 12 -162 l2 -137 6 140 c5 133 6 138 21 114 9
-14 19 -34 22 -44 4 -18 5 -18 6 2 0 12 -12 38 -29 56 -22 25 -30 45 -30 71
l0 36 -65 0 c-45 0 -67 -4 -71 -13z"/>
<path d="M2491 2754 c0 -11 3 -14 6 -6 3 7 2 16 -1 19 -3 4 -6 -2 -5 -13z"/>
<path d="M2469 2715 c8 -24 17 -42 19 -40 6 5 -18 74 -27 80 -5 2 -1 -15 8
-40z"/>
<path d="M2423 2550 c0 -36 2 -50 4 -32 2 17 2 47 0 65 -2 17 -4 3 -4 -33z"/>
<path d="M2270 2400 c-23 -7 -23 -8 -3 -9 12 -1 25 4 28 9 3 6 5 10 3 9 -2 -1
-14 -5 -28 -9z"/>
<path d="M1709 3388 c11 -15 29 -18 120 -16 l106 2 -104 3 c-62 2 -111 9 -120
16 -14 11 -14 10 -2 -5z"/>
<path d="M834 3375 c-8 -19 3 -35 26 -35 19 0 30 17 23 38 -6 17 -42 15 -49
-3z"/>
<path d="M1472 3365 c0 -16 2 -22 5 -12 2 9 2 23 0 30 -3 6 -5 -1 -5 -18z"/>
<path d="M1421 3332 c-2 -36 22 -72 99 -147 87 -85 119 -143 127 -232 l6 -65
-51 3 c-27 2 -48 1 -45 -3 2 -5 24 -8 49 -8 l45 0 -2 -125 c-1 -69 1 -129 5
-133 4 -4 6 85 4 198 -3 167 -7 212 -21 244 -9 22 -15 41 -13 43 8 9 47 -68
55 -109 7 -35 9 -38 10 -13 0 17 -9 50 -21 75 -12 25 -20 49 -19 53 1 5 -3 5
-9 2 -7 -4 -10 0 -8 11 2 13 -3 19 -17 19 -25 0 -136 84 -160 122 -10 15 -22
41 -26 58 -6 24 -7 26 -8 7z m202 -209 c-3 -7 -9 -10 -14 -7 -14 8 -11 21 5
21 8 0 12 -6 9 -14z"/>
<path d="M3893 3300 c0 -25 2 -35 4 -22 2 12 2 32 0 45 -2 12 -4 2 -4 -23z"/>
<path d="M1342 3280 c0 -14 2 -19 5 -12 2 6 2 18 0 25 -3 6 -5 1 -5 -13z"/>
<path d="M1490 3293 c0 -13 72 -107 92 -119 19 -12 39 -14 32 -3 -3 5 -9 7
-14 4 -8 -5 -74 69 -97 109 -7 12 -12 16 -13 9z"/>
<path d="M1120 3286 c0 -2 7 -7 16 -10 8 -3 12 -2 9 4 -6 10 -25 14 -25 6z"/>
<path d="M2270 3284 c0 -13 57 -104 66 -104 4 0 2 6 -4 13 -6 6 -22 32 -36 57
-14 25 -26 40 -26 34z"/>
<path d="M3971 3273 c-1 -19 -7 -23 -33 -23 -18 0 -40 -4 -47 -9 -10 -6 1 -8
30 -4 52 6 63 14 56 39 -4 16 -5 15 -6 -3z"/>
<path d="M919 3263 c-13 -16 -12 -17 4 -4 9 7 17 15 17 17 0 8 -8 3 -21 -13z"/>
<path d="M1175 3250 c10 -11 20 -20 23 -20 3 0 -3 9 -13 20 -10 11 -20 20 -23
20 -3 0 3 -9 13 -20z"/>
<path d="M4536 3261 c-4 -5 -2 -12 3 -15 5 -4 12 -2 15 3 4 5 2 12 -3 15 -5 4
-12 2 -15 -3z"/>
<path d="M2815 3203 c-22 -19 -31 -31 -20 -25 19 9 74 63 64 62 -2 -1 -22 -17
-44 -37z"/>
<path d="M1364 3210 c5 -8 16 -23 24 -32 14 -17 11 -18 -43 -18 -41 0 -65 5
-79 18 -21 17 -21 17 -2 -5 16 -19 29 -23 81 -23 l62 0 52 -55 c28 -30 61 -74
71 -97 11 -24 20 -36 20 -28 0 28 -55 108 -125 182 -38 40 -65 66 -61 58z"/>
<path d="M4322 3208 c7 -19 38 -22 38 -4 0 10 -9 16 -21 16 -12 0 -19 -5 -17
-12z"/>
<path d="M949 3171 c-33 -33 -39 -45 -39 -82 0 -50 27 -101 62 -120 20 -10 20
-9 -4 14 -27 25 -27 26 -12 64 21 50 42 73 82 90 49 20 96 3 177 -65 70 -58
105 -79 105 -63 0 5 -12 17 -27 27 -16 9 -57 45 -93 79 -90 85 -107 95 -163
95 -44 0 -54 -4 -88 -39z"/>
<path d="M1835 3185 l-25 -24 2 -288 3 -288 2 285 c3 273 4 285 24 306 12 13
33 25 48 27 l26 4 -28 2 c-18 0 -37 -8 -52 -24z"/>
<path d="M3958 3193 c23 -2 59 -2 80 0 20 2 1 4 -43 4 -44 0 -61 -2 -37 -4z"/>
<path d="M4160 3166 c0 -2 7 -7 16 -10 8 -3 12 -2 9 4 -6 10 -25 14 -25 6z"/>
<path d="M842 3140 c0 -14 2 -19 5 -12 2 6 2 18 0 25 -3 6 -5 1 -5 -13z"/>
<path d="M1750 3156 c0 -2 8 -10 18 -17 15 -13 16 -12 3 4 -13 16 -21 21 -21
13z"/>
<path d="M4220 3136 c0 -2 8 -10 18 -17 15 -13 16 -12 3 4 -13 16 -21 21 -21
13z"/>
<path d="M2623 3113 c20 -2 54 -2 75 0 20 2 3 4 -38 4 -41 0 -58 -2 -37 -4z"/>
<path d="M3957 3113 c18 -2 50 -2 70 0 21 2 7 4 -32 4 -38 0 -55 -2 -38 -4z"/>
<path d="M3880 3100 c-18 -12 -2 -12 25 0 13 6 15 9 5 9 -8 0 -22 -4 -30 -9z"/>
<path d="M4088 3103 c7 -3 16 -2 19 1 4 3 -2 6 -13 5 -11 0 -14 -3 -6 -6z"/>
<path d="M4290 3075 c19 -19 36 -35 39 -35 3 0 -10 16 -29 35 -19 19 -36 35
-39 35 -3 0 10 -16 29 -35z"/>
<path d="M1338 3093 c6 -2 18 -2 25 0 6 3 1 5 -13 5 -14 0 -19 -2 -12 -5z"/>
<path d="M4130 3090 c8 -5 20 -10 25 -10 6 0 3 5 -5 10 -8 5 -19 10 -25 10 -5
0 -3 -5 5 -10z"/>
<path d="M1404 3070 c12 -18 16 -51 16 -133 0 -96 -2 -108 -15 -97 -8 7 -15 8
-15 4 0 -10 40 -38 45 -32 4 3 7 123 6 190 -1 25 -9 46 -27 65 -22 25 -24 25
-10 3z"/>
<path d="M841 3064 c0 -11 3 -14 6 -6 3 7 2 16 -1 19 -3 4 -6 -2 -5 -13z"/>
<path d="M3282 3035 c-2 -62 8 -125 19 -125 5 0 9 16 9 35 0 19 -4 35 -9 35
-6 0 -12 24 -14 53 l-3 52 -2 -50z"/>
<path d="M4233 3028 c54 -55 80 -108 85 -179 6 -83 -11 -126 -77 -187 l-56
-53 -5 -317 c-6 -353 -8 -364 -77 -421 -99 -81 -269 -64 -316 32 -18 36 -18
39 -2 65 10 15 29 40 44 57 14 16 5 10 -22 -14 -43 -38 -53 -42 -90 -39 -65 5
-68 -10 -62 -241 3 -107 10 -220 17 -252 l12 -59 -40 -36 -39 -36 40 31 c22
17 45 31 52 31 10 0 11 11 7 43 -12 72 -12 72 31 78 l40 6 -44 2 -44 1 5 170
c3 94 7 173 10 176 3 3 27 -16 53 -43 l48 -48 -42 47 c-47 55 -52 78 -16 78
14 0 25 -4 25 -10 0 -22 64 -80 106 -96 65 -25 172 -14 232 23 84 52 87 64 90
403 3 294 4 320 19 320 13 0 4 -463 -8 -471 -13 -8 6 -49 22 -49 21 0 29 58
29 209 0 159 7 251 19 251 4 0 13 -15 19 -34 7 -19 20 -40 28 -47 11 -9 10 -2
-5 21 -32 52 -28 86 10 99 48 16 52 14 45 -21 -4 -24 -3 -29 4 -18 5 8 10 34
10 58 0 49 -4 50 -90 27 -30 -8 -57 -15 -58 -15 -2 0 18 18 45 39 28 21 55 53
62 70 18 43 9 153 -18 222 -22 57 -86 140 -122 160 -11 5 0 -9 24 -33z"/>
<path d="M4554 3050 c1 -18 34 -26 48 -12 6 6 1 8 -15 5 -16 -3 -27 0 -30 9
-3 9 -4 9 -3 -2z"/>
<path d="M784 3037 c-2 -7 -3 -67 -2 -133 l3 -119 5 133 c3 72 4 132 2 132 -1
0 -5 -6 -8 -13z"/>
<path d="M850 3033 c0 -21 66 -108 99 -130 59 -40 96 -45 200 -27 102 17 108
16 122 -38 8 -32 9 -32 4 7 -8 69 -30 78 -162 70 -104 -6 -116 -5 -159 15 -31
16 -56 37 -75 68 -16 25 -29 41 -29 35z"/>
<path d="M3953 3013 c9 -2 25 -2 35 0 9 3 1 5 -18 5 -19 0 -27 -2 -17 -5z"/>
<path d="M4063 3013 c9 -2 23 -2 30 0 6 3 -1 5 -18 5 -16 0 -22 -2 -12 -5z"/>
<path d="M3879 2987 c-37 -25 -79 -90 -78 -122 0 -12 5 -6 13 16 18 51 41 80
84 106 20 13 32 23 26 23 -6 0 -26 -10 -45 -23z"/>
<path d="M4125 2998 c11 -6 34 -22 50 -37 17 -14 14 -9 -7 12 -20 20 -43 37
-50 37 -7 0 -4 -6 7 -12z"/>
<path d="M1008 2953 c7 -3 16 -2 19 1 4 3 -2 6 -13 5 -11 0 -14 -3 -6 -6z"/>
<path d="M4096 2931 c47 -28 64 -59 64 -112 0 -39 -5 -53 -30 -77 -16 -17 -43
-33 -60 -37 l-30 -7 0 -338 0 -339 -24 -28 c-23 -26 -29 -28 -108 -29 -75 -2
-83 -3 -80 -20 2 -11 15 -30 30 -44 14 -14 19 -16 10 -5 -16 20 -15 20 57 20
59 0 79 4 102 21 49 37 54 71 59 421 l5 322 40 39 c36 36 39 44 39 93 0 59
-22 103 -62 125 -36 21 -46 16 -12 -5z"/>
<path d="M3386 2903 c-6 -14 -5 -15 5 -6 7 7 10 15 7 18 -3 3 -9 -2 -12 -12z"/>
<path d="M4216 2907 c3 -10 9 -15 12 -12 3 3 0 11 -7 18 -10 9 -11 8 -5 -6z"/>
<path d="M2961 2864 c0 -11 3 -14 6 -6 3 7 2 16 -1 19 -3 4 -6 -2 -5 -13z"/>
<path d="M2990 2868 c0 -4 7 -8 15 -8 8 0 15 4 15 8 0 5 -7 9 -15 9 -8 0 -15
-4 -15 -9z"/>
<path d="M3046 2856 c-6 -25 -11 -28 -41 -24 -18 2 -31 0 -29 -4 3 -4 18 -8
34 -8 30 0 55 29 47 53 -2 7 -7 -1 -11 -17z"/>
<path d="M4231 2864 c0 -11 3 -14 6 -6 3 7 2 16 -1 19 -3 4 -6 -2 -5 -13z"/>
<path d="M4392 2855 c0 -16 2 -22 5 -12 2 9 2 23 0 30 -3 6 -5 -1 -5 -18z"/>
<path d="M3794 2625 c0 -121 2 -169 3 -107 2 62 2 161 0 220 -1 59 -3 8 -3
-113z"/>
<path d="M1148 2823 c12 -2 30 -2 40 0 9 3 -1 5 -23 4 -22 0 -30 -2 -17 -4z"/>
<path d="M4241 2814 c0 -11 3 -14 6 -6 3 7 2 16 -1 19 -3 4 -6 -2 -5 -13z"/>
<path d="M1038 2813 c6 -2 18 -2 25 0 6 3 1 5 -13 5 -14 0 -19 -2 -12 -5z"/>
<path d="M2762 2574 c1 -167 4 -216 7 -149 l6 100 18 -27 c29 -42 75 -58 167
-58 128 0 170 -32 170 -131 0 -67 -19 -97 -70 -109 -33 -7 -33 -8 -7 -9 19 -1
38 9 58 28 26 26 29 36 29 91 0 57 -2 63 -39 103 l-40 42 -83 1 c-46 1 -93 2
-106 3 -12 0 -39 16 -60 35 l-37 34 -3 143 c-2 79 -5 145 -8 148 -2 2 -3 -108
-2 -245z"/>
<path d="M665 2788 c9 -23 -29 -60 -52 -51 -10 4 -22 11 -26 17 -5 7 -7 5 -4
-4 2 -8 15 -21 29 -29 23 -13 29 -13 52 3 27 17 29 45 4 71 -6 6 -7 4 -3 -7z"/>
<path d="M1408 2784 c12 -8 19 -21 16 -27 -4 -7 -4 -9 0 -5 10 8 16 3 110 -83
40 -36 83 -71 96 -78 20 -10 19 -8 -5 11 -16 13 -73 62 -125 111 -52 48 -99
87 -105 87 -5 0 1 -7 13 -16z"/>
<path d="M1430 2796 c0 -2 14 -14 30 -26 17 -12 30 -19 30 -16 0 2 -13 14 -30
26 -16 12 -30 19 -30 16z"/>
<path d="M2855 2788 c-28 -16 -35 -28 -35 -63 0 -42 31 -96 70 -122 29 -20 45
-23 139 -23 87 0 114 -4 146 -20 l40 -20 -23 22 c-20 21 -34 23 -153 28 l-131
5 -34 37 c-26 29 -34 46 -34 76 0 41 27 76 65 85 16 4 15 5 -5 6 -14 0 -34 -5
-45 -11z"/>
<path d="M1257 2783 c-9 -14 37 -53 91 -77 33 -15 41 -23 36 -38 -4 -15 -1
-14 20 7 15 15 31 22 40 19 29 -11 16 3 -26 30 -39 24 -40 25 -15 3 24 -20 26
-25 12 -30 -23 -9 -134 49 -144 75 -5 13 -10 17 -14 11z"/>
<path d="M1682 2682 c-1 -73 -6 -111 -12 -107 -5 3 -10 4 -10 1 0 -3 8 -10 18
-15 16 -8 17 -3 14 72 -5 146 -8 164 -10 49z"/>
<path d="M4231 2774 c0 -11 3 -14 6 -6 3 7 2 16 -1 19 -3 4 -6 -2 -5 -13z"/>
<path d="M2895 2755 c-31 -30 -32 -56 -1 -92 23 -27 28 -28 146 -34 131 -7
150 -14 194 -73 20 -26 21 -42 24 -389 2 -242 0 -374 -8 -399 -16 -56 -41 -64
-223 -72 -221 -10 -294 -36 -394 -138 -40 -41 -123 -171 -123 -193 0 -5 20 24
44 66 58 98 155 189 233 219 62 23 193 39 331 40 93 0 132 14 150 55 9 19 12
132 12 404 0 376 0 378 -23 412 -38 58 -95 79 -213 79 -87 0 -105 3 -128 21
-35 28 -35 72 -1 95 20 13 39 15 83 11 36 -3 48 -2 32 3 -53 17 -110 11 -135
-15z"/>
<path d="M3070 2750 c8 -5 20 -10 25 -10 6 0 3 5 -5 10 -8 5 -19 10 -25 10 -5
0 -3 -5 5 -10z"/>
<path d="M4208 2731 c-8 -10 -30 -29 -51 -41 l-37 -22 2 -346 3 -347 2 342 3
342 44 30 c24 17 46 37 49 46 9 21 1 19 -15 -4z"/>
<path d="M2943 2724 c-3 -8 1 -23 10 -31 13 -13 19 -14 31 -3 9 7 16 17 16 22
0 5 -7 2 -16 -6 -19 -20 -38 -11 -31 15 6 23 -1 25 -10 3z"/>
<path d="M789 2709 l-24 -20 28 17 c15 9 27 18 27 20 0 8 -8 4 -31 -17z"/>
<path d="M1558 2703 c13 -13 28 -23 35 -23 7 0 3 6 -8 12 -11 6 -27 16 -35 22
-9 6 -5 1 8 -11z"/>
<path d="M734 2668 l-19 -23 23 19 c21 18 27 26 19 26 -2 0 -12 -10 -23 -22z"/>
<path d="M1012 2680 c-49 -11 -122 -41 -122 -48 1 -10 70 -118 70 -108 0 4 -5
16 -11 27 -26 49 69 89 221 94 97 4 124 16 75 35 -30 12 -184 12 -233 0z"/>
<path d="M1483 2674 c23 -28 22 -48 -6 -80 -23 -26 -24 -26 -54 -10 -18 9 -34
25 -38 36 -4 11 -20 23 -38 28 -30 8 -32 7 -39 -22 -11 -46 -4 -58 26 -45 21
10 29 8 56 -15 17 -14 43 -29 56 -32 16 -4 23 -12 20 -20 -3 -8 6 -26 21 -41
14 -16 20 -21 14 -12 -9 13 -8 18 5 23 18 7 29 2 62 -27 15 -15 22 -16 22 -7
0 8 -22 34 -49 60 -42 39 -47 48 -38 68 6 12 13 22 18 22 4 0 26 -21 48 -46
23 -26 41 -44 41 -41 0 4 -23 32 -50 62 -28 31 -48 60 -46 64 3 4 -7 19 -22
32 -20 18 -22 19 -9 3z"/>
<path d="M3385 2660 c10 -11 20 -20 23 -20 3 0 -3 9 -13 20 -10 11 -20 20 -23
20 -3 0 3 -9 13 -20z"/>
<path d="M684 2628 l-19 -23 23 19 c21 18 27 26 19 26 -2 0 -12 -10 -23 -22z"/>
<path d="M2795 2630 c17 -23 75 -76 75 -68 0 2 -21 24 -47 48 -25 25 -38 34
-28 20z"/>
<path d="M3411 2614 c0 -11 3 -14 6 -6 3 7 2 16 -1 19 -3 4 -6 -2 -5 -13z"/>
<path d="M644 2578 l-19 -23 23 19 c21 18 27 26 19 26 -2 0 -12 -10 -23 -22z"/>
<path d="M809 2583 c-13 -16 -12 -17 4 -4 9 7 17 15 17 17 0 8 -8 3 -21 -13z"/>
<path d="M748 2583 c7 -3 16 -2 19 1 4 3 -2 6 -13 5 -11 0 -14 -3 -6 -6z"/>
<path d="M675 2560 c-3 -6 1 -7 9 -4 18 7 21 14 7 14 -6 0 -13 -4 -16 -10z"/>
<path d="M754 2538 l-29 -33 33 29 c30 28 37 36 29 36 -2 0 -16 -15 -33 -32z"/>
<path d="M617 2537 c-10 -26 8 -29 29 -4 14 15 14 18 2 9 -13 -10 -17 -10 -20
0 -3 8 -6 6 -11 -5z"/>
<path d="M820 2499 c-77 -79 -130 -237 -114 -339 9 -56 20 -50 16 9 -4 57 21
154 46 179 9 9 32 41 51 70 18 28 46 63 61 76 21 17 26 26 17 35 -19 19 -36
12 -77 -30z"/>
<path d="M1711 2515 c1 -19 18 -51 18 -35 0 8 -4 22 -9 30 -5 8 -9 11 -9 5z"/>
<path d="M1121 2501 c-18 -5 -51 -17 -72 -26 -38 -17 -40 -17 -61 1 -20 18
-21 18 -11 0 8 -15 2 -26 -36 -65 -71 -70 -96 -129 -96 -226 0 -66 5 -90 27
-138 33 -69 86 -140 99 -131 6 3 -8 25 -30 49 -49 53 -76 136 -66 200 13 91
112 235 160 235 8 0 15 4 15 9 0 21 102 43 179 39 89 -6 182 -46 226 -100 l27
-33 -24 44 c-28 53 -67 87 -134 118 -56 25 -151 37 -203 24z m-160 -568 c13
-16 12 -17 -3 -4 -10 7 -18 15 -18 17 0 8 8 3 21 -13z"/>
<path d="M1616 2487 c3 -10 9 -15 12 -12 3 3 0 11 -7 18 -10 9 -11 8 -5 -6z"/>
<path d="M4380 2474 c1 -16 29 -60 29 -44 0 8 -6 24 -14 34 -8 11 -15 16 -15
10z"/>
<path d="M1637 2440 c3 -14 9 -43 13 -65 6 -38 6 -39 11 -10 3 18 -3 44 -14
65 -11 23 -15 26 -10 10z"/>
<path d="M1728 2082 l-3 -368 -38 -50 c-22 -27 -58 -65 -82 -84 -65 -53 -89
-101 -93 -188 -5 -113 40 -219 114 -266 21 -14 17 -8 -14 23 -24 23 -52 63
-64 89 -26 60 -28 159 -4 230 15 43 28 60 76 97 32 24 72 66 89 91 l31 47 0
374 c0 205 -2 373 -5 373 -2 0 -6 -166 -7 -368z"/>
<path d="M1535 2398 c14 -24 32 -80 41 -123 26 -125 -2 -252 -77 -346 -35 -45
-31 -61 9 -39 36 20 113 175 120 239 2 29 -3 71 -13 107 -9 32 -17 61 -18 64
0 3 12 8 29 11 28 7 28 7 -7 8 -33 1 -38 5 -59 51 -13 28 -30 56 -37 62 -7 5
-2 -10 12 -34z"/>
<path d="M1178 2383 c6 -2 18 -2 25 0 6 3 1 5 -13 5 -14 0 -19 -2 -12 -5z"/>
<path d="M1672 2095 c-2 -339 0 -329 -107 -427 -93 -85 -136 -181 -134 -293 1
-45 2 -43 10 23 13 113 48 179 139 264 60 57 81 82 89 115 7 27 10 139 8 325
l-2 283 -3 -290z"/>
<path d="M561 2354 c0 -11 3 -14 6 -6 3 7 2 16 -1 19 -3 4 -6 -2 -5 -13z"/>
<path d="M1095 2360 c-3 -6 1 -7 9 -4 18 7 21 14 7 14 -6 0 -13 -4 -16 -10z"/>
<path d="M1316 2318 c71 -77 66 -169 -12 -238 -42 -36 -70 -44 -135 -38 -87 9
-148 74 -151 162 -1 39 -2 43 -5 17 -7 -57 5 -96 48 -154 51 -69 97 -91 173
-85 95 8 157 66 164 155 4 45 0 63 -27 118 -19 38 -45 73 -64 87 -30 20 -29
19 9 -24z"/>
<path d="M2844 2335 c-8 -33 12 -57 45 -53 22 3 26 8 26 38 0 32 -3 35 -32 38
-28 3 -33 -1 -39 -23z"/>
<path d="M1058 2333 c-18 -21 -31 -43 -25 -43 2 0 13 14 25 30 25 33 24 41 0
13z"/>
<path d="M4403 2305 c0 -27 2 -38 4 -22 2 15 2 37 0 50 -2 12 -4 0 -4 -28z"/>
<path d="M652 2310 c0 -14 2 -19 5 -12 2 6 2 18 0 25 -3 6 -5 1 -5 -13z"/>
<path d="M552 2290 c0 -19 2 -27 5 -17 2 9 2 25 0 35 -3 9 -5 1 -5 -18z"/>
<path d="M1112 2277 c-41 -42 -50 -92 -28 -136 19 -35 70 -71 101 -70 13 1 10
4 -11 10 -76 22 -85 94 -18 156 29 28 41 33 62 28 35 -8 72 -43 72 -67 0 -19
-15 -24 -25 -8 -4 6 -18 1 -35 -12 -28 -21 -30 -21 -57 -3 -23 15 -26 16 -15
2 22 -26 51 -31 72 -12 24 22 60 5 60 -29 0 -27 -17 -44 -57 -56 -25 -7 -26
-8 -5 -9 36 -1 83 51 77 86 -2 15 -7 45 -10 65 -8 52 -53 88 -109 88 -35 0
-48 -6 -74 -33z"/>
<path d="M2997 2304 c-14 -15 -6 -43 14 -49 25 -8 42 6 37 31 -3 19 -38 31
-51 18z"/>
<path d="M3074 2295 c-4 -9 -2 -21 3 -26 14 -14 45 1 41 20 -4 22 -37 26 -44
6z"/>
<path d="M2769 2273 c11 -22 47 -40 58 -29 4 3 -1 6 -10 6 -9 0 -26 10 -38 23
-21 22 -21 22 -10 0z"/>
<path d="M1492 2260 c0 -14 2 -19 5 -12 2 6 2 18 0 25 -3 6 -5 1 -5 -13z"/>
<path d="M643 2220 c0 -30 2 -43 4 -27 2 15 2 39 0 55 -2 15 -4 2 -4 -28z"/>
<path d="M2908 2243 c6 -2 18 -2 25 0 6 3 1 5 -13 5 -14 0 -19 -2 -12 -5z"/>
<path d="M1647 2116 c-12 -206 -38 -265 -123 -281 -20 -3 -78 -33 -128 -66
-50 -33 -97 -57 -104 -54 -8 3 -10 0 -6 -7 5 -8 2 -9 -9 -5 -10 3 -17 2 -17
-3 0 -6 -3 -9 -7 -9 -5 1 -10 1 -13 -1 -30 -11 -75 -15 -185 -15 -125 1 -132
2 -199 33 -51 24 -88 52 -144 109 -42 42 -65 61 -52 42 40 -58 156 -164 212
-194 29 -15 63 -40 76 -54 16 -17 22 -20 18 -8 -6 20 12 22 64 6 19 -6 72 -10
118 -10 127 0 240 39 332 116 40 33 129 85 146 85 4 0 1 -8 -7 -18 -8 -10 -4
-8 7 4 20 20 22 37 29 229 8 222 2 288 -8 101z"/>
<path d="M4392 2210 c0 -14 2 -19 5 -12 2 6 2 18 0 25 -3 6 -5 1 -5 -13z"/>
<path d="M3107 2185 l-28 -25 -232 0 c-130 0 -249 -5 -269 -11 -47 -13 -150
-106 -195 -177 -46 -71 -72 -151 -80 -238 -7 -86 6 -130 49 -170 l32 -29 -31
37 c-106 125 3 441 189 543 l53 30 245 5 c250 5 280 10 294 47 7 17 6 17 -27
-12z"/>
<path d="M1501 2184 c0 -11 3 -14 6 -6 3 7 2 16 -1 19 -3 4 -6 -2 -5 -13z"/>
<path d="M2828 2193 c17 -2 47 -2 65 0 17 2 3 4 -33 4 -36 0 -50 -2 -32 -4z"/>
<path d="M2948 2193 c7 -3 16 -2 19 1 4 3 -2 6 -13 5 -11 0 -14 -3 -6 -6z"/>
<path d="M552 2150 c0 -19 2 -27 5 -17 2 9 2 25 0 35 -3 9 -5 1 -5 -18z"/>
<path d="M4381 2154 c0 -11 3 -14 6 -6 3 7 2 16 -1 19 -3 4 -6 -2 -5 -13z"/>
<path d="M651 2142 c-2 -39 37 -135 83 -202 51 -74 106 -132 102 -107 -2 19
-37 59 -44 52 -11 -11 -45 50 -58 103 -18 78 -18 82 11 82 17 0 25 5 25 18 0
11 -3 13 -8 6 -4 -7 -18 -14 -32 -15 -19 -3 -24 -9 -22 -26 6 -41 -16 -24 -32
25 -8 26 -17 56 -19 67 -4 18 -5 17 -6 -3z m164 -282 c10 -11 16 -20 13 -20
-3 0 -13 9 -23 20 -10 11 -16 20 -13 20 3 0 13 -9 23 -20z"/>
<path d="M1491 2114 c0 -11 3 -14 6 -6 3 7 2 16 -1 19 -3 4 -6 -2 -5 -13z"/>
<path d="M4371 2114 c0 -11 3 -14 6 -6 3 7 2 16 -1 19 -3 4 -6 -2 -5 -13z"/>
<path d="M710 2099 c0 -5 5 -7 10 -4 6 3 10 8 10 11 0 2 -4 4 -10 4 -5 0 -10
-5 -10 -11z"/>
<path d="M561 2084 c0 -11 3 -14 6 -6 3 7 2 16 -1 19 -3 4 -6 -2 -5 -13z"/>
<path d="M1476 2075 c-9 -26 -7 -32 5 -12 6 10 9 21 6 23 -2 3 -7 -2 -11 -11z"/>
<path d="M4346 2045 c-9 -26 -7 -32 5 -12 6 10 9 21 6 23 -2 3 -7 -2 -11 -11z"/>
<path d="M2870 2040 c-26 -16 -3 -22 27 -6 23 13 24 15 8 15 -11 1 -27 -3 -35
-9z"/>
<path d="M4300 2003 c-23 -58 -23 -61 0 -20 12 21 20 43 18 48 -2 6 -10 -7
-18 -28z"/>
<path d="M4316 1973 c-6 -14 -5 -15 5 -6 7 7 10 15 7 18 -3 3 -9 -2 -12 -12z"/>
<path d="M4080 1927 c-19 -22 -26 -35 -15 -28 21 13 60 60 53 65 -1 1 -19 -15
-38 -37z"/>
<path d="M610 1944 c0 -6 7 -19 16 -30 14 -18 14 -18 3 6 -14 31 -19 36 -19
24z"/>
<path d="M4275 1908 c-16 -24 -22 -38 -14 -31 15 12 53 73 46 73 -2 0 -17 -19
-32 -42z"/>
<path d="M1359 1913 c-13 -16 -12 -17 4 -4 9 7 17 15 17 17 0 8 -8 3 -21 -13z"/>
<path d="M986 1911 c-8 -13 87 -61 119 -60 11 1 3 6 -17 11 -21 6 -38 14 -38
20 0 5 -4 6 -10 3 -5 -3 -10 -1 -10 6 0 7 -3 9 -7 6 -3 -4 -11 1 -18 10 -9 11
-14 13 -19 4z"/>
<path d="M1570 1899 c0 -5 5 -7 10 -4 6 3 10 8 10 11 0 2 -4 4 -10 4 -5 0 -10
-5 -10 -11z"/>
<path d="M4000 1880 c-21 -7 -21 -8 -5 -9 11 0 27 4 35 9 18 11 5 11 -30 0z"/>
<path d="M1285 1870 c-3 -5 6 -35 19 -67 14 -32 25 -53 26 -47 0 6 -9 32 -21
58 -11 25 -17 51 -14 56 3 6 4 10 1 10 -3 0 -7 -4 -11 -10z"/>
<path d="M1223 1853 c9 -2 23 -2 30 0 6 3 -1 5 -18 5 -16 0 -22 -2 -12 -5z"/>
<path d="M4184 1808 l-19 -23 23 19 c12 11 22 21 22 23 0 8 -8 2 -26 -19z"/>
<path d="M910 1790 c-9 -6 -10 -10 -3 -10 6 0 15 5 18 10 8 12 4 12 -15 0z"/>
<path d="M1971 1764 c0 -11 3 -14 6 -6 3 7 2 16 -1 19 -3 4 -6 -2 -5 -13z"/>
<path d="M978 1763 c7 -3 16 -2 19 1 4 3 -2 6 -13 5 -11 0 -14 -3 -6 -6z"/>
<path d="M2963 1763 c26 -2 68 -2 95 0 26 2 4 3 -48 3 -52 0 -74 -1 -47 -3z"/>
<path d="M3898 1763 c7 -3 16 -2 19 1 4 3 -2 6 -13 5 -11 0 -14 -3 -6 -6z"/>
<path d="M1028 1753 c7 -3 16 -2 19 1 4 3 -2 6 -13 5 -11 0 -14 -3 -6 -6z"/>
<path d="M1228 1753 c6 -2 18 -2 25 0 6 3 1 5 -13 5 -14 0 -19 -2 -12 -5z"/>
<path d="M2818 1753 c6 -2 18 -2 25 0 6 3 1 5 -13 5 -14 0 -19 -2 -12 -5z"/>
<path d="M4060 1745 c-19 -7 -28 -14 -20 -14 8 0 29 6 45 14 39 17 21 18 -25
0z"/>
<path d="M1098 1743 c17 -2 47 -2 65 0 17 2 3 4 -33 4 -36 0 -50 -2 -32 -4z"/>
<path d="M1534 1734 c-18 -14 -18 -14 6 -3 31 14 36 19 24 19 -6 0 -19 -7 -30
-16z"/>
<path d="M2760 1740 c-8 -5 -10 -10 -5 -10 6 0 17 5 25 10 8 5 11 10 5 10 -5
0 -17 -5 -25 -10z"/>
<path d="M2913 1723 c32 -2 81 -2 110 0 29 2 3 3 -58 3 -60 0 -84 -1 -52 -3z"/>
<path d="M3928 1723 c18 -2 45 -2 60 0 15 2 0 4 -33 4 -33 0 -45 -2 -27 -4z"/>
<path d="M1460 1675 c-24 -25 -42 -45 -39 -45 3 0 25 20 49 45 24 25 42 45 39
45 -3 0 -25 -20 -49 -45z"/>
<path d="M1993 1713 c9 -14 87 -77 87 -70 0 3 -21 22 -47 43 -26 21 -44 33
-40 27z"/>
<path d="M2818 1713 c7 -3 16 -2 19 1 4 3 -2 6 -13 5 -11 0 -14 -3 -6 -6z"/>
<path d="M3834 1688 l-19 -23 23 19 c12 11 22 21 22 23 0 8 -8 2 -26 -19z"/>
<path d="M2728 1684 c-39 -21 -35 -28 5 -8 37 19 44 24 31 24 -5 -1 -21 -8
-36 -16z"/>
<path d="M745 1661 c6 -11 3 -13 -14 -8 -18 4 -22 2 -19 -16 2 -14 11 -23 26
-25 30 -4 40 24 17 46 -11 11 -15 12 -10 3z"/>
<path d="M3143 1643 c15 -2 37 -2 50 0 12 2 0 4 -28 4 -27 0 -38 -2 -22 -4z"/>
<path d="M2619 1603 l-34 -38 38 34 c20 19 37 36 37 38 0 8 -8 0 -41 -34z"/>
<path d="M3802 1615 c0 -16 2 -22 5 -12 2 9 2 23 0 30 -3 6 -5 -1 -5 -18z"/>
<path d="M1385 1579 c-4 -6 -5 -12 -2 -15 2 -3 7 2 10 11 7 17 1 20 -8 4z"/>
<path d="M1100 1555 c-7 -9 -10 -18 -6 -22 3 -3 6 -1 6 6 0 6 10 16 23 21 15
6 17 9 6 9 -9 1 -22 -6 -29 -14z"/>
<path d="M2718 1536 c-70 -53 -130 -150 -199 -323 -17 -43 -44 -95 -60 -115
-19 -25 -29 -48 -29 -72 0 -28 -8 -41 -42 -71 -33 -29 -36 -33 -13 -20 44 25
65 53 65 87 0 17 12 44 30 66 16 20 41 67 55 105 64 171 142 295 217 345 34
22 43 24 60 13 16 -10 19 -10 16 1 -9 26 -52 19 -100 -16z"/>
<path d="M1168 1544 c23 -16 30 -58 12 -69 -5 -3 -10 -30 -10 -58 0 -117 58
-244 156 -345 l67 -67 -61 67 c-33 37 -75 97 -94 135 -32 66 -33 72 -33 189 0
106 -3 125 -19 143 -11 12 -24 21 -30 21 -6 0 0 -7 12 -16z"/>
<path d="M2569 1543 c-13 -16 -12 -17 4 -4 9 7 17 15 17 17 0 8 -8 3 -21 -13z"/>
<path d="M2078 1460 c-6 -111 -25 -157 -87 -213 -45 -41 -66 -50 -34 -14 11
12 26 32 32 44 15 30 13 123 -4 153 -13 24 -13 23 -8 -17 7 -57 -26 -126 -79
-161 -92 -61 -236 -4 -252 101 -3 18 -7 43 -9 57 -3 14 -5 5 -6 -20 -1 -32 8
-63 28 -105 36 -73 54 -95 105 -129 76 -51 214 -27 269 45 47 62 78 229 59
314 -8 36 -9 30 -14 -55z"/>
<path d="M990 1514 c0 -8 -4 -13 -9 -10 -5 3 -8 -2 -7 -12 1 -12 -6 -17 -22
-16 -16 0 -20 -2 -12 -10 7 -7 16 -7 30 1 15 10 19 9 23 -5 3 -9 5 2 6 26 0
23 -1 42 -4 42 -3 0 -5 -7 -5 -16z"/>
<path d="M1763 1510 c-43 -26 -64 -60 -69 -112 l-3 -43 9 42 c17 80 51 112
130 124 l45 6 -40 2 c-24 0 -53 -7 -72 -19z"/>
<path d="M3830 1515 c24 -8 46 -13 48 -11 5 5 -59 26 -77 25 -9 0 4 -7 29 -14z"/>
<path d="M1880 1516 c0 -2 7 -7 16 -10 8 -3 12 -2 9 4 -6 10 -25 14 -25 6z"/>
<path d="M1920 1496 c0 -2 8 -10 18 -17 15 -13 16 -12 3 4 -13 16 -21 21 -21
13z"/>
<path d="M1371 1464 c0 -11 3 -14 6 -6 3 7 2 16 -1 19 -3 4 -6 -2 -5 -13z"/>
<path d="M3920 1477 c0 -2 15 -16 33 -33 l32 -29 -29 33 c-28 30 -36 37 -36
29z"/>
<path d="M2461 1404 c-19 -13 -29 -24 -23 -24 6 0 24 11 39 25 35 31 28 31
-16 -1z"/>
<path d="M1373 1385 c0 -22 2 -30 4 -17 2 12 2 30 0 40 -3 9 -5 -1 -4 -23z"/>
<path d="M3768 1413 c7 -3 16 -2 19 1 4 3 -2 6 -13 5 -11 0 -14 -3 -6 -6z"/>
<path d="M1092 1380 c0 -19 2 -27 5 -17 2 9 2 25 0 35 -3 9 -5 1 -5 -18z"/>
<path d="M3986 1397 c3 -10 9 -15 12 -12 3 3 0 11 -7 18 -10 9 -11 8 -5 -6z"/>
<path d="M4161 1400 c0 -8 6 -28 14 -45 17 -39 18 -21 0 25 -7 19 -14 28 -14
20z"/>
<path d="M4294 1387 c1 -16 -4 -21 -19 -19 -15 2 -17 1 -6 -7 8 -5 20 -7 28
-4 14 6 18 39 5 47 -5 3 -8 -5 -8 -17z"/>
<path d="M780 1385 c-6 -8 -10 -22 -7 -32 4 -14 5 -14 6 4 0 12 9 27 19 32 9
6 12 11 6 11 -6 0 -17 -7 -24 -15z"/>
<path d="M1002 1370 c0 -19 2 -27 5 -17 2 9 2 25 0 35 -3 9 -5 1 -5 -18z"/>
<path d="M848 1348 c-2 -18 -9 -23 -35 -23 -24 0 -29 -3 -21 -12 6 -8 30 -12
57 -12 25 1 36 4 24 6 -19 4 -21 9 -16 34 3 16 3 29 0 29 -3 0 -7 -10 -9 -22z"/>
<path d="M2496 1335 c-9 -26 -7 -32 5 -12 6 10 9 21 6 23 -2 3 -7 -2 -11 -11z"/>
<path d="M1101 1324 c0 -11 3 -14 6 -6 3 7 2 16 -1 19 -3 4 -6 -2 -5 -13z"/>
<path d="M4013 1290 c0 -30 2 -43 4 -27 2 15 2 39 0 55 -2 15 -4 2 -4 -28z"/>
<path d="M1011 1314 c0 -11 3 -14 6 -6 3 7 2 16 -1 19 -3 4 -6 -2 -5 -13z"/>
<path d="M1381 1314 c0 -11 3 -14 6 -6 3 7 2 16 -1 19 -3 4 -6 -2 -5 -13z"/>
<path d="M1441 1304 c0 -11 3 -14 6 -6 3 7 2 16 -1 19 -3 4 -6 -2 -5 -13z"/>
<path d="M4190 1315 c0 -5 5 -17 10 -25 5 -8 10 -10 10 -5 0 6 -5 17 -10 25
-5 8 -10 11 -10 5z"/>
<path d="M918 1293 c7 -3 16 -2 19 1 4 3 -2 6 -13 5 -11 0 -14 -3 -6 -6z"/>
<path d="M1111 1290 c0 -8 4 -22 9 -30 12 -18 12 -2 0 25 -6 13 -9 15 -9 5z"/>
<path d="M2476 1285 c-9 -26 -7 -32 5 -12 6 10 9 21 6 23 -2 3 -7 -2 -11 -11z"/>
<path d="M1021 1280 c0 -8 6 -28 14 -45 17 -39 18 -21 0 25 -7 19 -14 28 -14
20z"/>
<path d="M2456 1235 c-9 -26 -7 -32 5 -12 6 10 9 21 6 23 -2 3 -7 -2 -11 -11z"/>
<path d="M1130 1231 c0 -6 4 -13 10 -16 6 -3 7 1 4 9 -7 18 -14 21 -14 7z"/>
<path d="M960 1220 c0 -5 5 -10 10 -10 6 0 10 5 10 10 0 6 -4 10 -10 10 -5 0
-10 -4 -10 -10z"/>
<path d="M4209 1211 c11 -7 10 -11 -5 -20 -11 -6 -14 -10 -9 -11 6 0 16 4 24
9 15 10 7 31 -12 31 -8 0 -7 -3 2 -9z"/>
<path d="M2129 1193 c-13 -16 -12 -17 4 -4 16 13 21 21 13 21 -2 0 -10 -8 -17
-17z"/>
<path d="M2436 1185 c-9 -26 -7 -32 5 -12 6 10 9 21 6 23 -2 3 -7 -2 -11 -11z"/>
<path d="M3416 1174 c-5 -14 -4 -15 9 -4 17 14 19 20 6 20 -5 0 -12 -7 -15
-16z"/>
<path d="M3374 1118 l-29 -33 33 29 c17 17 32 31 32 33 0 8 -8 1 -36 -29z"/>
<path d="M2020 1119 c-22 -18 -22 -19 -3 -10 12 6 25 16 28 21 9 15 3 12 -25
-11z"/>
<path d="M3494 1118 l-19 -23 23 19 c21 18 27 26 19 26 -2 0 -12 -10 -23 -22z"/>
<path d="M3946 1092 c-22 -27 -24 -32 -7 -17 20 17 47 55 39 55 -2 0 -16 -17
-32 -38z"/>
<path d="M1215 1100 c10 -11 20 -20 23 -20 3 0 -3 9 -13 20 -10 11 -20 20 -23
20 -3 0 3 -9 13 -20z"/>
<path d="M1674 1096 c11 -9 24 -16 30 -16 12 0 7 5 -24 19 -24 11 -24 11 -6
-3z"/>
<path d="M1935 1080 c-13 -6 -15 -9 -5 -9 8 0 22 4 30 9 18 12 2 12 -25 0z"/>
<path d="M2372 1061 c-17 -24 -125 -110 -198 -159 -16 -11 -15 -11 6 -1 14 6
50 30 80 53 30 22 63 39 72 38 17 -3 70 55 74 82 3 24 -10 19 -34 -13z m-4
-31 c-7 -11 -19 -22 -28 -25 -8 -4 -4 5 9 19 29 31 36 33 19 6z"/>
<path d="M1240 1066 c0 -2 8 -10 18 -17 15 -13 16 -12 3 4 -13 16 -21 21 -21
13z"/>
<path d="M1773 1063 c9 -2 23 -2 30 0 6 3 -1 5 -18 5 -16 0 -22 -2 -12 -5z"/>
<path d="M1878 1063 c6 -2 18 -2 25 0 6 3 1 5 -13 5 -14 0 -19 -2 -12 -5z"/>
<path d="M3414 1038 l-19 -23 23 19 c12 11 22 21 22 23 0 8 -8 2 -26 -19z"/>
<path d="M1315 1000 c10 -11 20 -20 23 -20 3 0 -3 9 -13 20 -10 11 -20 20 -23
20 -3 0 3 -9 13 -20z"/>
<path d="M3818 1013 c7 -3 16 -2 19 1 4 3 -2 6 -13 5 -11 0 -14 -3 -6 -6z"/>
<path d="M3743 1003 c9 -2 25 -2 35 0 9 3 1 5 -18 5 -19 0 -27 -2 -17 -5z"/>
<path d="M1350 976 c0 -2 8 -10 18 -17 15 -13 16 -12 3 4 -13 16 -21 21 -21
13z"/>
<path d="M3708 973 c7 -3 16 -2 19 1 4 3 -2 6 -13 5 -11 0 -14 -3 -6 -6z"/>
<path d="M3798 973 c7 -3 16 -2 19 1 4 3 -2 6 -13 5 -11 0 -14 -3 -6 -6z"/>
<path d="M4090 885 c0 -9 5 -15 11 -13 6 2 11 8 11 13 0 5 -5 11 -11 13 -6 2
-11 -4 -11 -13z"/>
<path d="M2100 870 c-8 -5 -10 -10 -5 -10 6 0 17 5 25 10 8 5 11 10 5 10 -5 0
-17 -5 -25 -10z"/>
<path d="M1588 853 c7 -3 16 -2 19 1 4 3 -2 6 -13 5 -11 0 -14 -3 -6 -6z"/>
<path d="M1628 843 c7 -3 16 -2 19 1 4 3 -2 6 -13 5 -11 0 -14 -3 -6 -6z"/>
<path d="M2028 843 c7 -3 16 -2 19 1 4 3 -2 6 -13 5 -11 0 -14 -3 -6 -6z"/>
<path d="M1668 833 c6 -2 18 -2 25 0 6 3 1 5 -13 5 -14 0 -19 -2 -12 -5z"/>
<path d="M1978 833 c6 -2 18 -2 25 0 6 3 1 5 -13 5 -14 0 -19 -2 -12 -5z"/>
<path d="M1743 823 c15 -2 37 -2 50 0 12 2 0 4 -28 4 -27 0 -38 -2 -22 -4z"/>
<path d="M1908 823 c12 -2 30 -2 40 0 9 3 -1 5 -23 4 -22 0 -30 -2 -17 -4z"/>
<path d="M3663 740 c5 -18 35 -26 50 -11 7 7 3 8 -13 4 -13 -4 -26 0 -32 8 -8
12 -9 11 -5 -1z"/>
<path d="M3479 705 c15 -32 -5 -58 -37 -51 -26 6 -26 6 -8 -9 25 -19 31 -19
50 1 20 20 20 35 0 60 -15 19 -15 19 -5 -1z"/>
<path d="M3412 690 c0 -14 2 -19 5 -12 2 6 2 18 0 25 -3 6 -5 1 -5 -13z"/>
<path d="M2364 656 c11 -9 24 -16 30 -16 12 0 7 5 -24 19 -24 11 -24 11 -6 -3z"/>
</g>
</svg>